<svg xmlns="http://www.w3.org/2000/svg"  viewBox="0 0 100 100" width="16px" height="16px"><path fill="#6666a4" d="M23.925,84V16h34c0,0,22,2,22,27c0,30-35,25-35,25v11c0,2.761-2.239,5-5,5H23.925z"/><path fill="#78a1d1" d="M40.233,84.043L40.233,84.043c0,0,1.618-3.76-1.065-6.444c-0.867-0.843-1.735-1.47-3.012-2.241 c-1.253-0.771-2.626-1.759-3.71-2.843c-2.144-2.168-4-4.53-5.132-7.349c-0.241-0.602-0.458-1.181-0.651-1.759 c-0.289-0.747-0.554-1.446-0.916-2.144c-0.313-0.602-0.889-1.21-1.322-1.764c1.108,0.891,1.13,0.125,2.069,1.258 c0.916,1.108,1.662,2.433,2.409,3.566c0.096,0.145,0.169,0.265,0.289,0.385c1.446,2.024,3.445,3.662,5.493,4.987 c0.096,0.048,0.169,0.12,0.265,0.145c1.012,0.626,2.024,1.06,3.204,1.47c1.277,0.41,2.915,1.108,4.289,1.976 c0.747,0.458,1.422,0.94,2.072,1.422L44.925,81l-4,3L40.233,84.043"/><polygon fill="#c26dab" points="23.925,83 39.925,84 40.705,81.171 38.925,77 34.47,74.224 31.73,71.772 27.925,66 26.925,63 23.925,59"/><polygon fill="#f58f8f" points="24.843,32.994 23.925,16 33.481,16 49.925,31 61.675,48.5 73.517,60.564 65.317,65.773 46.925,53 32.925,42"/><path fill="#f15c6c" d="M35.425,16.5h10c0,0,12.5,4.5,14.5,10.5s17,18,17,18l2.265,5l-5.265,9l-14-12l-5.981-8.472 c0,0-7.019-8.877-9.019-9.202S29.887,19,33.906,16L35.425,16.5z"/><path fill="#f15c6c" d="M23.925,44.428l1.136-14.146L31.925,37c0,0,11,6,10,8s10,12,10,12l11.774,9.356L49.925,68l-12-8 l-5.452-9.5L27.925,46l-3.5-1.572H23.925z"/><path fill="#78a1d1" d="M79.087,41.353c-1.349-1.06-2.915-2.096-4.554-2.819c-1.638-0.723-3.036-1.084-4.241-1.687 c-0.193-0.096-0.385-0.193-0.602-0.313c-2.217-1.229-4.433-3.06-6.048-5.108c-0.169-0.217-0.313-0.434-0.482-0.675 c-0.675-1.012-1.325-2.144-2.12-3.18c-0.988-1.277-1.887-2.361-3.092-3.325c0.964,1.205,1.574,2.506,2.225,3.855 c0.217,0.458,0.41,0.94,0.578,1.422c0.361,0.94,0.675,1.928,1.132,2.939c0.699,1.518,1.638,2.915,2.65,4.192 c1.036,1.277,2.168,2.53,3.542,3.614c1.397,1.132,2.915,1.903,3.951,2.723c1.084,0.771,1.952,1.687,2.819,2.771l4.578,5.738 L79.087,41.353z"/><path fill="#bad3e9" d="M59.485,66.91c-0.169-0.289-0.337-0.578-0.506-0.843c-0.747-1.229-1.349-2.048-2.289-3.108 c-0.867-1.012-1.759-1.831-2.867-2.578c-1.108-0.723-2.674-1.614-3.927-2.723c-1.277-1.108-2.337-2.313-3.301-3.542 c-0.988-1.253-1.879-2.65-2.506-4.12c-0.386-0.891-0.675-1.759-1.012-2.602c-0.193-0.53-0.41-1.06-0.675-1.566 c-1.221-2.13-1.594-2.689-2.434-3.735c1.181,0.94,2.289,2,3.253,3.204c0.867,1.06,1.542,2.289,2.241,3.325 c0.096,0.145,0.193,0.289,0.289,0.434c1.662,2.217,4,4.12,6.313,5.421c0.024,0,0.024,0.024,0.048,0.024 c1.181,0.651,2.361,1.012,3.927,1.614c1.566,0.602,3.156,1.542,4.506,2.53c1.325,0.916,2.723,2.337,3.71,3.566 c0.699,0.819,1.349,1.614,1.952,2.482"/><path fill="#78a1d1" d="M73.322,54.192c-1.071-1.135-2.163-2.035-3.341-2.934c-1.199-0.878-2.591-1.649-3.941-2.163 c-1.199-0.471-2.185-0.792-3.105-1.285c-0.128-0.043-0.236-0.107-0.343-0.171c-2.056-1.199-4.133-2.913-5.547-4.904 c-0.107-0.15-0.193-0.3-0.3-0.471c-0.578-0.921-1.178-1.97-1.885-2.87c-0.835-1.071-2.908-3.558-3.936-4.393 c0.835,1.028,2.445,3.564,3.023,4.721c0.257,0.493,0.72,1.086,0.913,1.6c0.257,0.685,0.514,1.414,0.814,2.163 c0.557,1.306,1.349,2.506,2.206,3.598c0.857,1.092,1.778,2.142,2.891,3.105c1.114,0.985,2.484,1.735,3.491,2.377 c1.028,0.664,1.82,1.371,2.634,2.249c0.771,0.857,1.563,1.842,2.12,2.784c0.621,0.964,0.942,1.82,1.435,3.084l0.664,1.478 l4.856-4.348C75.329,56.762,74.285,55.177,73.322,54.192z"/><path fill="#bad3e9" d="M45.425,68.5c-1.253-0.771-4.689-3.734-5.773-4.819c-2.144-2.168-4-4.53-5.132-7.349 c-0.169-0.41-0.313-0.819-0.458-1.205c-0.337-0.94-0.675-1.831-1.108-2.699c-0.482-0.916-1.06-1.807-1.687-2.65l-0.072-0.072 c-0.169-0.265-0.577-0.942-0.77-1.207c1.108,0.891,2.336,2.291,3.276,3.423c0.916,1.108,1.662,2.433,2.409,3.566 c0.241,0.386,0.53,0.747,0.819,1.084c1.397,1.711,3.156,3.108,4.963,4.289c0.313,0.193,0.651,0.386,0.964,0.554 c0.795,0.41,1.614,0.747,2.506,1.06c1.277,0.41,2.915,1.108,4.289,1.976c1.205,0.747,5.074,4.183,4.774,4.048"/><path fill="#1f212b" d="M57.925,15h-34c-0.553,0-1,0.447-1,1v68c0,0.553,0.447,1,1,1h16c3.309,0,6-2.691,6-6v-9.88	c4.1,0.391,18.109,1.059,27.188-6.815c5.184-4.495,7.812-10.99,7.812-19.305C80.925,17.383,58.244,15.025,57.925,15z M75.584,56.281	c-0.557-0.828-1.241-1.759-1.898-2.432c-1.16-1.229-2.32-2.163-3.41-2.995c-1.249-0.915-2.689-1.705-4.053-2.226	c-0.314-0.123-0.613-0.236-0.901-0.345c-0.804-0.304-1.498-0.565-2.228-0.947c-0.076-0.026-0.154-0.073-0.25-0.13	c-2.214-1.291-4.128-2.982-5.391-4.762c-0.07-0.099-0.131-0.198-0.195-0.305l-0.477-0.771c-0.473-0.769-0.96-1.563-1.526-2.284	c-0.736-0.944-1.706-2.157-2.573-3.073c-3.628-4.939-9.262-8.301-9.494-8.437c-1.184-0.733-2.285-1.491-3.275-2.254	c-4.801-3.703-6.051-6.823-6.375-8.322l12.782-0.002c0.741,0.307,8.458,3.593,11.857,8.42c0.564,0.865,1.005,1.778,1.465,2.732	l0.08,0.166c0.197,0.416,0.385,0.878,0.563,1.388c0.117,0.304,0.229,0.612,0.342,0.926c0.239,0.659,0.485,1.34,0.803,2.043	c0.644,1.398,1.531,2.803,2.716,4.299c0.877,1.079,2.08,2.474,3.616,3.687c0.795,0.645,1.634,1.179,2.373,1.65	c0.586,0.373,1.14,0.726,1.603,1.091c0.929,0.66,1.768,1.485,2.75,2.712l3.664,3.791C77.599,52.259,76.742,54.387,75.584,56.281z M75.237,45.45c-1.012-1.266-1.913-2.15-2.9-2.852c-0.482-0.381-1.057-0.747-1.664-1.135c-0.753-0.479-1.531-0.975-2.287-1.588	c-1.464-1.155-2.62-2.497-3.46-3.531c-1.131-1.428-1.978-2.767-2.586-4.088c-0.3-0.664-0.54-1.327-0.772-1.969	c-0.115-0.319-0.229-0.634-0.344-0.93c-0.185-0.528-0.386-1.022-0.6-1.475l-0.044-0.091c0.021,0.027,0.043,0.055,0.064,0.083	c0.52,0.677,0.981,1.406,1.429,2.111c0.226,0.355,0.447,0.705,0.679,1.052l0.117,0.169c0.127,0.183,0.245,0.354,0.381,0.528	c1.602,2.031,3.86,3.939,6.196,5.234c0.217,0.121,0.409,0.218,0.623,0.324c0.667,0.333,1.386,0.595,2.146,0.87	c0.671,0.244,1.364,0.495,2.115,0.826c1.426,0.629,2.921,1.556,4.447,2.755c0.035,0.028,0.075,0.041,0.115,0.058	c0.012,0.397,0.032,0.786,0.032,1.196c0,2.035-0.178,3.943-0.511,5.735L75.237,45.45z M78.843,40.549	c-1.401-1.048-2.781-1.887-4.108-2.472c-0.782-0.346-1.492-0.603-2.179-0.852c-0.732-0.267-1.425-0.518-2.061-0.836	c-0.18-0.09-0.36-0.18-0.563-0.293c-2.226-1.233-4.375-3.048-5.895-4.977c-0.122-0.157-0.23-0.314-0.347-0.481l-0.114-0.164	c-0.221-0.33-0.438-0.674-0.659-1.022c-0.459-0.724-0.934-1.473-1.481-2.187c-0.932-1.204-1.876-2.37-3.176-3.41	c-0.015-0.012-0.033-0.016-0.048-0.026c-2.715-3.203-6.942-5.591-9.482-6.833l9.103-0.001	C58.664,17.071,77.505,19.046,78.843,40.549z M32.511,16.999c0.294,1.646,1.553,5.074,6.791,9.114	c1.018,0.783,2.147,1.562,3.369,2.317c0.052,0.031,4.775,2.851,8.268,6.988c-0.023,0.137,2.031,3.465,2.566,4.533	c0.106,0.206,0.247,0.428,0.391,0.653c0.195,0.309,0.397,0.628,0.497,0.893l0.238,0.643c0.182,0.495,0.371,1.008,0.584,1.541	c0.511,1.197,1.254,2.411,2.271,3.71c1.042,1.327,1.954,2.306,2.954,3.172c0.894,0.789,1.919,1.417,2.824,1.972	c0.257,0.157,0.502,0.307,0.727,0.45c0.923,0.596,1.682,1.244,2.534,2.164c0.882,0.979,1.594,1.913,2.071,2.72	c0.563,0.875,0.864,1.646,1.319,2.813l0.524,1.185c-1.255,0.915-2.594,1.682-3.981,2.322c-0.612-0.858-1.259-1.642-1.814-2.291	c-1.161-1.445-2.587-2.815-3.805-3.656c-1.073-0.785-2.746-1.872-4.621-2.593c-0.402-0.154-0.778-0.293-1.136-0.425	c-1.011-0.373-1.884-0.694-2.729-1.16c-0.011-0.007-0.022-0.012-0.033-0.018c-0.008-0.004-0.015-0.007-0.021-0.011	c-2.443-1.376-4.626-3.25-6.132-5.258l-0.29-0.435c-0.226-0.334-0.448-0.688-0.675-1.05c-0.486-0.774-0.989-1.575-1.59-2.309	c-0.922-1.151-3.506-3.375-3.601-3.383c-2.9-2.389-5.698-3.958-5.844-4.04c-3.505-1.947-7.695-6.445-9.243-8.181V17L32.511,16.999z M59.742,66.367c-0.113-0.191-0.226-0.388-0.336-0.56c-0.768-1.263-1.381-2.095-2.336-3.174c-0.925-1.079-1.868-1.927-2.974-2.671	c-0.252-0.164-0.526-0.337-0.816-0.519c-0.99-0.622-2.112-1.328-3.056-2.163c-1.095-0.949-2.122-2.053-3.236-3.474	c-1.056-1.339-1.876-2.687-2.439-4.009c-0.229-0.53-0.424-1.052-0.615-1.563c-0.129-0.347-0.257-0.688-0.387-1.012	c-0.216-0.595-0.424-1.084-0.657-1.542c0.541,0.673,1.012,1.421,1.466,2.145c0.233,0.372,0.462,0.734,0.691,1.076l0.305,0.455	c1.606,2.141,3.903,4.114,6.468,5.557c0.013,0.007,0.024,0.014,0.037,0.02c0.008,0.004,0.016,0.008,0.023,0.012	c0.909,0.5,1.813,0.833,2.858,1.219c0.354,0.13,0.726,0.267,1.122,0.42c1.384,0.531,2.942,1.407,4.401,2.474	c1.153,0.797,2.501,2.094,3.614,3.48c0.51,0.596,1.088,1.308,1.642,2.068C63.622,65.393,61.664,65.962,59.742,66.367z M53.813,67.181c-1.458-1.39-3.859-3.13-3.895-3.152c-1.245-0.786-2.892-1.545-4.39-2.024c-0.942-0.331-1.719-0.659-2.436-1.029	c-0.306-0.164-0.634-0.353-0.927-0.532c-2.063-1.348-3.649-2.718-4.856-4.195c-0.233-0.272-0.533-0.635-0.782-1.034	c-0.211-0.32-0.423-0.656-0.638-0.998c-0.555-0.882-1.129-1.794-1.804-2.611c-1.194-1.439-2.181-2.48-3.022-3.21	c-0.937-1.076-4.048-4.47-6.139-4.457V30.876c1.931,2.101,5.554,5.782,8.757,7.562c0.038,0.021,3.195,1.791,6.229,4.389	c0.63,0.816,1.038,1.471,2.049,3.233c0.226,0.431,0.431,0.908,0.653,1.52c0.132,0.331,0.257,0.666,0.384,1.005	c0.197,0.528,0.397,1.064,0.633,1.608c0.597,1.4,1.463,2.825,2.572,4.232c1.153,1.471,2.223,2.619,3.363,3.607	c1.001,0.887,2.16,1.615,3.183,2.258c0.285,0.179,0.555,0.349,0.796,0.506c1.037,0.698,1.891,1.465,2.772,2.493	c0.917,1.036,1.502,1.831,2.241,3.046c0.047,0.075,0.095,0.16,0.142,0.238C57.002,66.883,55.348,67.075,53.813,67.181z M43.925,73.666c-0.383-0.269-0.783-0.539-1.213-0.802c-1.24-0.783-2.886-1.542-4.393-2.026c-1.287-0.446-2.216-0.871-3.104-1.422	c-0.045-0.028-0.101-0.063-0.152-0.075c-0.048-0.032-0.098-0.063-0.105-0.064c-2.363-1.529-4.115-3.118-5.411-4.921	c-0.066-0.066-0.116-0.142-0.226-0.307c-0.21-0.319-0.421-0.654-0.636-0.995c-0.555-0.883-1.13-1.796-1.806-2.615	c-0.576-0.695-0.91-0.813-1.318-0.904c-0.174-0.039-0.348-0.086-0.636-0.287V44.933c1.217-0.02,3.501,2.046,5.029,3.721	c0.016,0.048,0.035,0.096,0.067,0.139c0.135,0.185,0.378,0.579,0.564,0.879l0.188,0.303c0.02,0.03,0.043,0.06,0.068,0.085	l0.024,0.017c0.647,0.872,1.201,1.742,1.641,2.576c0.398,0.796,0.711,1.602,1.088,2.65l0.117,0.317	c0.108,0.294,0.221,0.598,0.344,0.898c1.022,2.544,2.688,4.932,5.243,7.516c0.818,0.818,3.031,2.761,4.626,3.999V73.666z M24.925,60.916c0.147,0.196,0.28,0.39,0.378,0.578c0.326,0.632,0.576,1.274,0.84,1.955l0.046,0.118	c0.195,0.587,0.416,1.174,0.661,1.787c1.021,2.545,2.687,4.933,5.242,7.516c1.239,1.239,2.751,2.27,3.805,2.917	c1.309,0.791,2.128,1.399,2.917,2.167c1.698,1.697,1.507,3.858,1.226,5.035C40,82.99,39.964,83,39.925,83h-15V60.916z M41.097,82.804c0.263-1.446,0.267-3.715-1.582-5.563c-0.853-0.83-1.723-1.478-3.099-2.309c-1.005-0.618-2.447-1.6-3.616-2.769	c-2.457-2.483-4.053-4.767-5.023-7.183c-0.237-0.593-0.45-1.162-0.648-1.754l-0.054-0.141c-0.222-0.572-0.434-1.118-0.693-1.667	c0.523,0.683,0.997,1.436,1.457,2.166c0.218,0.348,0.433,0.688,0.688,1.076c0.085,0.129,0.173,0.263,0.258,0.338	c1.316,1.844,3.158,3.518,5.629,5.116c0.015,0.01,0.082,0.051,0.098,0.059c0.055,0.036,0.13,0.086,0.228,0.123	c0.939,0.576,1.916,1.022,3.263,1.488c1.442,0.464,3.003,1.183,4.182,1.928c0.634,0.387,1.204,0.792,1.741,1.184V79	C43.925,80.795,42.729,82.3,41.097,82.804z M45.065,67.01c-0.226-0.032-0.444,0.034-0.638,0.149	c-1.495-1.172-3.575-2.984-4.419-3.829c-2.457-2.484-4.053-4.768-5.025-7.187c-0.12-0.293-0.228-0.585-0.332-0.868l-0.117-0.316	c-0.264-0.732-0.571-1.565-0.956-2.388c0.527,0.686,1.004,1.441,1.466,2.177c0.22,0.349,0.435,0.69,0.643,1.006	c0.278,0.445,0.608,0.846,0.856,1.136c1.267,1.55,2.927,2.986,5.089,4.398c0.322,0.198,0.668,0.396,0.996,0.572	c0.767,0.396,1.583,0.741,2.583,1.093c1.436,0.46,2.996,1.178,4.178,1.924c0.596,0.37,1.895,1.447,2.972,2.382	C48.159,67.426,45.137,67.02,45.065,67.01z M71.809,60.789c-0.182,0.158-0.371,0.304-0.557,0.455L70.918,60.5l-0.07-0.181	c-0.46-1.181-0.793-2.033-1.4-2.976c-0.507-0.859-1.24-1.822-2.184-2.87c-0.917-0.989-1.733-1.686-2.732-2.331	c-0.231-0.147-0.482-0.301-0.745-0.462c-0.87-0.532-1.855-1.136-2.688-1.871c-0.953-0.825-1.824-1.762-2.825-3.036	c-0.963-1.229-1.663-2.369-2.135-3.475c-0.205-0.515-0.391-1.019-0.57-1.505l-0.239-0.647c-0.136-0.361-0.366-0.726-0.59-1.077	c-0.01-0.016-0.02-0.03-0.028-0.046c0.435,0.594,0.831,1.24,1.218,1.87l0.476,0.77c0.077,0.126,0.149,0.243,0.232,0.36	c1.344,1.894,3.369,3.686,5.698,5.044c0.122,0.073,0.261,0.157,0.364,0.185c0.71,0.379,1.433,0.652,2.269,0.968	c0.284,0.107,0.58,0.219,0.895,0.342c1.286,0.491,2.644,1.236,3.814,2.094c1.048,0.8,2.17,1.703,3.288,2.887	c0.714,0.73,1.47,1.802,2.039,2.675C74.094,58.531,73.033,59.726,71.809,60.789z"/></svg>