<?xml version="1.0" ?><!-- Uploaded to: SVG Repo, www.svgrepo.com, Generator: SVG Repo Mixer Tools -->
<svg fill="#00ff00" width="800px" height="800px" viewBox="0 0 16 16" data-name="Layer 1" id="Layer_1" xmlns="http://www.w3.org/2000/svg"><title/><path d="M7.5,6.005h-1V5a.5.5,0,0,0-1,0V6h-1V5a1.5,1.5,0,0,1,3,0Z"/><path d="M11.5,6.005h-1V5a.5.5,0,0,0-1,0V6h-1V5a1.5,1.5,0,0,1,3,0Z"/><path d="M8,1A7,7,0,1,1,1,8,7.008,7.008,0,0,1,8,1M8,0a8,8,0,1,0,8,8A8,8,0,0,0,8,0Z"/><path d="M3,8A5,5,0,0,0,13,8Zm5,3.873A3.868,3.868,0,0,1,4.27,8.986h7.46A3.868,3.868,0,0,1,8,11.873Z"/></svg>