<?xml version="1.0" ?><!-- Uploaded to: SVG Repo, www.svgrepo.com, Generator: SVG Repo Mixer Tools -->
<svg fill="#ff0000" width="800px" height="800px" viewBox="0 0 16 16" data-name="Layer 1" id="Layer_1" xmlns="http://www.w3.org/2000/svg"><title/><ellipse cx="6" cy="5.5" rx="1" ry="1.5"/><ellipse cx="10" cy="5.5" rx="1" ry="1.5"/><path d="M12.071,12H10.929a2.929,2.929,0,0,0-5.858,0H3.929a4.071,4.071,0,0,1,8.142,0Z"/><path d="M8,1A7,7,0,1,1,1,8,7.008,7.008,0,0,1,8,1M8,0a8,8,0,1,0,8,8A8,8,0,0,0,8,0Z"/><path d="M12.838,7.429a1.057,1.057,0,0,1-.989-.5c-.536-.914.438-2.739.639-3.1a.418.418,0,0,1,.7,0c.2.358,1.175,2.183.64,3.1A1.058,1.058,0,0,1,12.838,7.429Zm0-2.482c-.266.634-.448,1.315-.3,1.574.016.029.06.105.3.105s.279-.076.3-.105C13.286,6.262,13.1,5.581,12.838,4.947Z"/></svg>