<?xml version="1.0" ?><!-- Uploaded to: SVG Repo, www.svgrepo.com, Generator: SVG Repo Mixer Tools -->
<svg fill="#aaffaa" width="800px" height="800px" viewBox="0 0 16 16" data-name="Layer 1" id="Layer_1" xmlns="http://www.w3.org/2000/svg"><title/><ellipse cx="6" cy="5.5" rx="1" ry="1.5"/><ellipse cx="10" cy="5.5" rx="1" ry="1.5"/><path d="M8.071,13.071A5.076,5.076,0,0,1,3,8H4.143A3.929,3.929,0,1,0,12,8h1.143A5.077,5.077,0,0,1,8.071,13.071Z"/><path d="M8,1A7,7,0,1,1,1,8,7.008,7.008,0,0,1,8,1M8,0a8,8,0,1,0,8,8A8,8,0,0,0,8,0Z"/></svg>