<?xml version="1.0" ?><!-- Uploaded to: SVG Repo, www.svgrepo.com, Generator: SVG Repo Mixer Tools -->
<svg fill="#dddddd" width="800px" height="800px" viewBox="0 0 16 16" data-name="Layer 1" id="Layer_1" xmlns="http://www.w3.org/2000/svg"><title/><path d="M8,1A7,7,0,1,1,1,8,7.008,7.008,0,0,1,8,1M8,0a8,8,0,1,0,8,8A8,8,0,0,0,8,0Z"/><path d="M3.5,5V4.012A1.523,1.523,0,0,0,5.03,2.5h1A2.518,2.518,0,0,1,3.5,5Z"/><path d="M12.5,5V4.012A1.523,1.523,0,0,1,10.97,2.5h-1A2.518,2.518,0,0,0,12.5,5Z"/><path d="M13,8.694l2.521-2.521-.707-.707L12.267,8.013H3.711L1.164,5.466l-.708.707L3,8.716v3.539l-.977.977.707.707.926-.926h8.655l.927.926.707-.707L13,12.287ZM4,9.013h8v3H4Z"/><rect height="1" width="3" x="8.476" y="5.002"/><rect height="1" width="3" x="4.476" y="5.002"/></svg>